<svg xmlns="http://www.w3.org/2000/svg" version="1.1" xmlns:xlink="http://www.w3.org/1999/xlink" xmlns:svgjs="http://svgjs.dev/svgjs" width="2000" height="1500" viewBox="0 0 2000 1500"><rect width="2000" height="1500" fill="#3498db"></rect><g transform="matrix(0.75,0,0,0.75,249.090909090909,524.8682688628111)"><svg viewBox="0 0 396 119" data-background-color="#3498db" preserveAspectRatio="xMidYMid meet" height="601" width="2000" xmlns="http://www.w3.org/2000/svg" xmlns:xlink="http://www.w3.org/1999/xlink"><g id="tight-bounds" transform="matrix(1,0,0,1,0.2400000000000091,-0.0642240591780876)"><svg viewBox="0 0 395.52 119.1284481183562" height="119.1284481183562" width="395.52"><g><svg viewBox="0 0 395.52 119.1284481183562" height="119.1284481183562" width="395.52"><g><svg viewBox="0 0 395.52 119.1284481183562" height="119.1284481183562" width="395.52"><g id="textblocktransform"><svg viewBox="0 0 395.52 119.1284481183562" height="119.1284481183562" width="395.52" id="textblock"><g><svg viewBox="0 0 395.52 95.01433535066211" height="95.01433535066211" width="395.52"><rect width="395.52" height="95.01433535066211" x="0" y="0" opacity="1" fill="#111111" data-fill-palette-color="tertiary"></rect><g transform="matrix(1,0,0,1,23.461705032,23.461705032)"><svg width="348.596589936" viewBox="5.65 -38 278.32000000000005 38.4" height="48.090925286662106" data-palette-color="#ffffff"><path d="M8.05 0L5.65 0 5.65-36.3 5.7-36.3 23.2-11.45 22.15-11.6 39.6-36.3 39.65-36.3 39.65 0 37.25 0 37.25-30.65 37.45-29.45 22.65-8.6 22.55-8.6 7.65-29.45 8.05-30.55 8.05 0ZM57.85 0.4L57.85 0.4Q55.05 0.4 52.77-0.88 50.5-2.15 49.17-4.45 47.85-6.75 47.85-9.8L47.85-9.8Q47.85-13.05 49.25-15.38 50.65-17.7 53.05-18.93 55.45-20.15 58.5-20.15L58.5-20.15Q61.1-20.15 63.42-18.6 65.75-17.05 66.75-14.7L66.75-14.7 66.4-14 66.7-19.55 68.8-19.55 68.8 0 66.45 0 66.45-6.05 66.95-5.15Q66.6-4.15 65.75-3.18 64.9-2.2 63.67-1.38 62.45-0.55 60.97-0.08 59.5 0.4 57.85 0.4ZM58.35-1.6L58.35-1.6Q60.55-1.6 62.32-2.53 64.1-3.45 65.2-5.1 66.3-6.75 66.45-8.9L66.45-8.9 66.45-11.7Q66.05-13.55 64.87-15 63.7-16.45 62-17.3 60.3-18.15 58.3-18.15L58.3-18.15Q56.1-18.15 54.25-17.13 52.4-16.1 51.3-14.25 50.2-12.4 50.2-9.9L50.2-9.9Q50.2-7.6 51.3-5.73 52.4-3.85 54.27-2.73 56.15-1.6 58.35-1.6ZM77.7-19.55L79.75-19.55 80-13.55 79.7-14.3Q80.34-16.1 81.75-17.4 83.15-18.7 84.87-19.4 86.59-20.1 88.2-20.1L88.2-20.1 88.09-17.8Q85.84-17.8 84.02-16.8 82.2-15.8 81.12-14.13 80.05-12.45 80.05-10.35L80.05-10.35 80.05 0 77.7 0 77.7-19.55ZM97.14 0L94.79 0 94.79-38 97.14-38 97.14 0ZM99.99-11.4L101.64-12.7 110.74 0 107.99 0 99.99-11.4ZM109.54-18.7L96.34-7.1 96.14-9.45 108.09-19.95 109.54-18.7ZM119.29-19.3L119.29-28.15 121.69-28.15 121.69-19.3 127.74-19.3 127.74-17.4 121.69-17.4 121.69 0 119.29 0 119.29-17.4 115.14-17.4 115.14-19.3 119.29-19.3ZM137.19 0L134.79 0 134.79-36.3 134.84-36.3 152.34-11.45 151.29-11.6 168.74-36.3 168.79-36.3 168.79 0 166.39 0 166.39-30.65 166.59-29.45 151.79-8.6 151.69-8.6 136.79-29.45 137.19-30.55 137.19 0ZM187.38 0.4L187.38 0.4Q184.34 0.4 181.99-0.95 179.63-2.3 178.31-4.63 176.99-6.95 176.99-9.85L176.99-9.85Q176.99-12.7 178.38-15.05 179.78-17.4 182.16-18.8 184.53-20.2 187.44-20.2L187.44-20.2Q190.94-20.2 193.31-18.15 195.69-16.1 196.74-12.8L196.74-12.8 179.63-6.2 178.94-7.9 194.59-14 194.09-13.3Q193.24-15.3 191.51-16.75 189.78-18.2 187.28-18.2L187.28-18.2Q185.03-18.2 183.24-17.1 181.44-16 180.36-14.15 179.28-12.3 179.28-9.95L179.28-9.95Q179.28-7.75 180.31-5.85 181.34-3.95 183.19-2.8 185.03-1.65 187.44-1.65L187.44-1.65Q189.03-1.65 190.51-2.25 191.99-2.85 193.13-3.8L193.13-3.8 194.34-2.1Q192.94-1 191.11-0.3 189.28 0.4 187.38 0.4ZM203.23 0L203.23-19.55 205.58-19.55 205.58 0 203.23 0ZM202.73-26.75L202.73-26.75Q202.73-27.45 203.28-27.93 203.83-28.4 204.48-28.4L204.48-28.4Q205.18-28.4 205.68-27.93 206.18-27.45 206.18-26.75L206.18-26.75Q206.18-26 205.68-25.53 205.18-25.05 204.48-25.05L204.48-25.05Q203.83-25.05 203.28-25.55 202.73-26.05 202.73-26.75ZM219.08 0.4L219.08 0.4Q217.38 0.4 215.53-0.23 213.68-0.85 212.53-2.25L212.53-2.25 213.63-3.8Q214.63-2.75 216-2.13 217.38-1.5 218.93-1.5L218.93-1.5Q220.08-1.5 221.1-1.83 222.13-2.15 222.78-2.95 223.43-3.75 223.43-5.1L223.43-5.1Q223.43-6.5 222.66-7.25 221.88-8 220.71-8.47 219.53-8.95 218.23-9.35L218.23-9.35Q216.08-10.05 214.71-11.25 213.33-12.45 213.33-14.65L213.33-14.65Q213.33-16.25 214.1-17.45 214.88-18.65 216.23-19.33 217.58-20 219.28-20L219.28-20Q220.83-20 222.35-19.5 223.88-19 225.13-17.8L225.13-17.8 224.08-16.15Q223.28-17.25 221.96-17.65 220.63-18.05 219.63-18.1L219.63-18.1Q218.78-18.1 217.85-17.75 216.93-17.4 216.31-16.73 215.68-16.05 215.68-14.95L215.68-14.95Q215.68-13.8 216.33-13.08 216.98-12.35 218-11.9 219.03-11.45 220.13-11.05L220.13-11.05Q221.58-10.6 222.85-9.98 224.13-9.35 224.96-8.33 225.78-7.3 225.78-5.6L225.78-5.6Q225.78-3.9 225.03-2.53 224.28-1.15 222.81-0.38 221.33 0.4 219.08 0.4ZM234.83-19.3L234.83-28.15 237.23-28.15 237.23-19.3 243.28-19.3 243.28-17.4 237.23-17.4 237.23 0 234.83 0 234.83-17.4 230.68-17.4 230.68-19.3 234.83-19.3ZM257.63 0.4L257.63 0.4Q254.58 0.4 252.23-0.95 249.88-2.3 248.55-4.63 247.23-6.95 247.23-9.85L247.23-9.85Q247.23-12.7 248.63-15.05 250.03-17.4 252.4-18.8 254.78-20.2 257.68-20.2L257.68-20.2Q261.18-20.2 263.55-18.15 265.93-16.1 266.98-12.8L266.98-12.8 249.88-6.2 249.18-7.9 264.82-14 264.32-13.3Q263.48-15.3 261.75-16.75 260.03-18.2 257.53-18.2L257.53-18.2Q255.28-18.2 253.48-17.1 251.68-16 250.6-14.15 249.53-12.3 249.53-9.95L249.53-9.95Q249.53-7.75 250.55-5.85 251.58-3.95 253.43-2.8 255.28-1.65 257.68-1.65L257.68-1.65Q259.28-1.65 260.75-2.25 262.23-2.85 263.38-3.8L263.38-3.8 264.57-2.1Q263.18-1 261.35-0.3 259.53 0.4 257.63 0.4ZM273.47-19.55L275.52-19.55 275.77-13.55 275.47-14.3Q276.12-16.1 277.52-17.4 278.92-18.7 280.65-19.4 282.37-20.1 283.97-20.1L283.97-20.1 283.87-17.8Q281.62-17.8 279.8-16.8 277.97-15.8 276.9-14.13 275.82-12.45 275.82-10.35L275.82-10.35 275.82 0 273.47 0 273.47-19.55Z" opacity="1" transform="matrix(1,0,0,1,0,0)" fill="#ffffff" class="wordmark-text-0" data-fill-palette-color="quaternary" id="text-0"></path></svg></g></svg></g><g transform="matrix(1,0,0,1,75.54432,106.7451878666621)"><svg viewBox="0 0 244.43135999999998 12.383260251694095" height="12.383260251694095" width="244.43135999999998"><g transform="matrix(1,0,0,1,0,0)"><svg width="244.43135999999998" viewBox="2.2 -36.95 929.5999999999999 47.1" height="12.383260251694095" data-palette-color="#111111"><path d="M14.55 0.35L14.55 0.35Q12.6 0.35 10.6-0.1 8.6-0.55 6.93-1.53 5.25-2.5 4.23-4.08 3.2-5.65 3.2-7.85L3.2-7.85Q3.2-8.1 3.2-8.33 3.2-8.55 3.25-8.9L3.25-8.9Q3.4-10.25 3.93-12.25 4.45-14.25 5.15-16.5 5.85-18.75 6.53-20.95 7.2-23.15 7.65-24.98 8.1-26.8 8.1-27.9L8.1-27.9Q8.1-29.1 7.45-29.1L7.45-29.1Q6.8-29.1 5.5-27.85 4.2-26.6 2.5-23.7L2.5-23.7 2.2-23.8Q2.2-27.85 4.03-30.73 5.85-33.6 9.22-35.13 12.6-36.65 17.2-36.65L17.2-36.65Q21.5-36.65 24.6-35.38 27.7-34.1 29.68-31.9 31.65-29.7 32.6-26.88 33.55-24.05 33.55-20.95L33.55-20.95Q33.55-17.2 32.23-13.43 30.9-9.65 28.43-6.53 25.95-3.4 22.43-1.53 18.9 0.35 14.55 0.35ZM15.4-6.25L15.4-6.25Q17.4-6.25 19.03-7.43 20.65-8.6 21.85-10.55 23.05-12.5 23.7-14.88 24.35-17.25 24.35-19.65L24.35-19.65Q24.35-22.5 23.38-25 22.4-27.5 20.25-29.05 18.1-30.6 14.65-30.6L14.65-30.6Q14.9-29.65 15.03-28.65 15.15-27.65 15.15-26.6L15.15-26.6Q15.15-24.3 14.73-21.9 14.3-19.5 13.78-17.25 13.25-15 12.83-13.05 12.4-11.1 12.4-9.6L12.4-9.6Q12.4-8.05 13.05-7.15 13.7-6.25 15.4-6.25ZM46.65 0.35L46.65 0.35Q43 0.35 40.6-1.13 38.2-2.6 37-5.03 35.8-7.45 35.8-10.25L35.8-10.25Q35.8-12.9 36.82-15.58 37.85-18.25 39.82-20.45 41.8-22.65 44.62-24 47.45-25.35 51-25.35L51-25.35Q55.4-25.35 57.42-23.38 59.45-21.4 59.45-18.6L59.45-18.6Q59.45-16.2 58.17-14.18 56.9-12.15 54.8-10.93 52.7-9.7 50.2-9.7L50.2-9.7Q48.9-9.7 47.55-10.1 46.2-10.5 44.9-11.35L44.9-11.35Q45.15-8.25 46.7-6.85 48.25-5.45 50.4-5.45L50.4-5.45Q51.9-5.45 53.4-6.03 54.9-6.6 56.17-7.53 57.45-8.45 58.15-9.5L58.15-9.5 58.5-9.25Q58.5-6.65 57.42-4.83 56.35-3 54.6-1.85 52.85-0.7 50.77-0.18 48.7 0.35 46.65 0.35ZM47.8-13.15L47.8-13.15Q49.4-13.15 50.4-14.08 51.4-15 51.9-16.25 52.4-17.5 52.4-18.45L52.4-18.45Q52.4-19.6 51.75-20.38 51.1-21.15 49.95-21.15L49.95-21.15Q49.05-21.15 47.97-20.5 46.9-19.85 46.05-18.28 45.2-16.7 44.95-13.9L44.95-13.9Q46.55-13.15 47.8-13.15ZM71.35-26.75L71.35-26.75Q69.35-26.75 68.07-27.98 66.8-29.2 66.8-31.05L66.8-31.05Q66.8-33.05 68.3-34.5 69.8-35.95 71.95-35.95L71.95-35.95Q73.95-35.95 75.22-34.7 76.5-33.45 76.5-31.6L76.5-31.6Q76.5-29.6 75-28.18 73.5-26.75 71.35-26.75ZM67.85 0.2L67.85 0.2Q65.9 0.2 64.35-1.18 62.8-2.55 62.8-5.6L62.8-5.6Q62.8-7.35 63.27-8.88 63.75-10.4 64.37-11.85 65-13.3 65.47-14.68 65.95-16.05 65.95-17.4L65.95-17.4Q65.95-18.6 65.55-19.13 65.15-19.65 64.6-19.65L64.6-19.65Q63.75-19.65 62.95-18.55L62.95-18.55 62.6-18.75Q62.8-20.75 63.87-22.18 64.95-23.6 66.52-24.4 68.1-25.2 69.65-25.2L69.65-25.2Q71.55-25.2 72.95-23.98 74.35-22.75 74.35-20L74.35-20Q74.35-18.35 73.87-16.53 73.4-14.7 72.77-12.9 72.15-11.1 71.67-9.55 71.2-8 71.2-6.9L71.2-6.9Q71.2-5.95 71.57-5.55 71.95-5.15 72.4-5.15L72.4-5.15Q72.85-5.15 73.27-5.43 73.7-5.7 73.9-6.05L73.9-6.05 74.25-5.95Q74.25-4.1 73.27-2.73 72.3-1.35 70.85-0.58 69.4 0.2 67.85 0.2ZM84.04 0.15L84.04 0.15Q82.19 0.15 80.69-1.33 79.19-2.8 79.19-5.45L79.19-5.45Q79.19-6.75 79.54-8.4 79.89-10.05 80.32-11.75 80.74-13.45 81.09-14.95 81.44-16.45 81.44-17.4L81.44-17.4Q81.44-18.4 81.04-18.98 80.64-19.55 79.99-19.55L79.99-19.55Q79.14-19.55 78.14-18.55L78.14-18.55 77.84-18.75Q77.79-19.55 78.19-20.65 78.59-21.75 79.42-22.78 80.24-23.8 81.54-24.5 82.84-25.2 84.64-25.2L84.64-25.2Q87.29-25.2 88.57-23.68 89.84-22.15 89.84-19.95L89.84-19.95Q89.84-19.15 89.69-18.4L89.69-18.4Q90.74-19.95 92.29-21.53 93.84-23.1 95.72-24.15 97.59-25.2 99.59-25.2L99.59-25.2Q101.94-25.2 102.79-23.7 103.64-22.2 103.64-19.95L103.64-19.95Q103.64-17.85 103.19-15.45 102.74-13.05 102.29-10.83 101.84-8.6 101.84-7.1L101.84-7.1Q101.84-5.1 102.99-5.1L102.99-5.1Q103.59-5.1 104.04-5.48 104.49-5.85 104.64-6.2L104.64-6.2 104.99-6.05Q104.99-4.2 103.97-2.8 102.94-1.4 101.39-0.63 99.84 0.15 98.24 0.15L98.24 0.15Q96.29 0.15 94.79-1.2 93.29-2.55 93.29-5.6L93.29-5.6Q93.29-7.4 93.77-9.5 94.24-11.6 94.69-13.55 95.14-15.5 95.14-16.75L95.14-16.75Q95.14-17.5 94.87-17.93 94.59-18.35 93.89-18.35L93.89-18.35Q92.74-18.35 91.37-17.3 89.99-16.25 89.02-14.5 88.04-12.75 88.04-10.65L88.04-10.65Q88.04-9.3 88.37-8.05 88.69-6.8 88.69-5.35L88.69-5.35Q88.69-2.65 87.29-1.25 85.89 0.15 84.04 0.15ZM125.64 0.35L125.64 0.35Q122.29 0.35 120.09-0.88 117.89-2.1 116.84-4.08 115.79-6.05 115.79-8.35L115.79-8.35Q115.79-10.4 116.59-12.4 117.39-14.4 118.96-16.05 120.54-17.7 122.79-18.65L122.79-18.65Q120.74-19.95 119.71-21.78 118.69-23.6 118.69-25.6L118.69-25.6Q118.69-28.2 120.39-30.65 122.09-33.1 125.34-34.7 128.59-36.3 133.14-36.3L133.14-36.3Q136.29-36.3 138.16-35.52 140.04-34.75 140.89-33.52 141.74-32.3 141.74-30.9L141.74-30.9Q141.74-29.3 140.74-27.73 139.74-26.15 137.86-25.15 135.99-24.15 133.29-24.15L133.29-24.15Q134.09-26.5 134.09-28.05L134.09-28.05Q134.09-29.6 133.44-30.3 132.79-31 131.84-31L131.84-31Q130.84-31 129.71-30.25 128.59-29.5 127.84-28.15 127.09-26.8 127.09-25L127.09-25Q127.09-24.05 127.39-22.88 127.69-21.7 128.34-20.55L128.34-20.55Q129.44-21.25 130.36-21.58 131.29-21.9 132.04-21.9L132.04-21.9Q133.59-21.9 134.29-20.83 134.99-19.75 134.99-18.4L134.99-18.4Q134.99-16.8 134.01-15.35 133.04-13.9 131.14-13.9L131.14-13.9Q129.39-13.9 127.04-15.55L127.04-15.55Q124.29-13.6 124.29-10.95L124.29-10.95Q124.29-8.9 125.56-7.85 126.84-6.8 128.84-6.8L128.84-6.8Q131.39-6.8 134.54-8.58 137.69-10.35 140.14-13.9L140.14-13.9 140.54-13.65Q140.44-10.15 139.11-7.53 137.79-4.9 135.66-3.15 133.54-1.4 130.94-0.53 128.34 0.35 125.64 0.35ZM152.89-26.75L152.89-26.75Q150.89-26.75 149.61-27.98 148.34-29.2 148.34-31.05L148.34-31.05Q148.34-33.05 149.84-34.5 151.34-35.95 153.49-35.95L153.49-35.95Q155.49-35.95 156.76-34.7 158.04-33.45 158.04-31.6L158.04-31.6Q158.04-29.6 156.54-28.18 155.04-26.75 152.89-26.75ZM149.39 0.2L149.39 0.2Q147.44 0.2 145.89-1.18 144.34-2.55 144.34-5.6L144.34-5.6Q144.34-7.35 144.81-8.88 145.29-10.4 145.91-11.85 146.54-13.3 147.01-14.68 147.49-16.05 147.49-17.4L147.49-17.4Q147.49-18.6 147.09-19.13 146.69-19.65 146.14-19.65L146.14-19.65Q145.29-19.65 144.49-18.55L144.49-18.55 144.14-18.75Q144.34-20.75 145.41-22.18 146.49-23.6 148.06-24.4 149.64-25.2 151.19-25.2L151.19-25.2Q153.09-25.2 154.49-23.98 155.89-22.75 155.89-20L155.89-20Q155.89-18.35 155.41-16.53 154.94-14.7 154.31-12.9 153.69-11.1 153.21-9.55 152.74-8 152.74-6.9L152.74-6.9Q152.74-5.95 153.11-5.55 153.49-5.15 153.94-5.15L153.94-5.15Q154.39-5.15 154.81-5.43 155.24-5.7 155.44-6.05L155.44-6.05 155.79-5.95Q155.79-4.1 154.81-2.73 153.84-1.35 152.39-0.58 150.94 0.2 149.39 0.2ZM165.58 0.15L165.58 0.15Q163.73 0.15 162.23-1.33 160.73-2.8 160.73-5.45L160.73-5.45Q160.73-6.75 161.08-8.4 161.43-10.05 161.86-11.75 162.28-13.45 162.63-14.95 162.98-16.45 162.98-17.4L162.98-17.4Q162.98-18.4 162.58-18.98 162.18-19.55 161.53-19.55L161.53-19.55Q160.68-19.55 159.68-18.55L159.68-18.55 159.38-18.75Q159.33-19.55 159.73-20.65 160.13-21.75 160.96-22.78 161.78-23.8 163.08-24.5 164.38-25.2 166.18-25.2L166.18-25.2Q168.83-25.2 170.11-23.68 171.38-22.15 171.38-19.95L171.38-19.95Q171.38-19.15 171.23-18.4L171.23-18.4Q172.28-19.95 173.83-21.53 175.38-23.1 177.26-24.15 179.13-25.2 181.13-25.2L181.13-25.2Q183.48-25.2 184.33-23.7 185.18-22.2 185.18-19.95L185.18-19.95Q185.18-17.85 184.73-15.45 184.28-13.05 183.83-10.83 183.38-8.6 183.38-7.1L183.38-7.1Q183.38-5.1 184.53-5.1L184.53-5.1Q185.13-5.1 185.58-5.48 186.03-5.85 186.18-6.2L186.18-6.2 186.53-6.05Q186.53-4.2 185.51-2.8 184.48-1.4 182.93-0.63 181.38 0.15 179.78 0.15L179.78 0.15Q177.83 0.15 176.33-1.2 174.83-2.55 174.83-5.6L174.83-5.6Q174.83-7.4 175.31-9.5 175.78-11.6 176.23-13.55 176.68-15.5 176.68-16.75L176.68-16.75Q176.68-17.5 176.41-17.93 176.13-18.35 175.43-18.35L175.43-18.35Q174.28-18.35 172.91-17.3 171.53-16.25 170.56-14.5 169.58-12.75 169.58-10.65L169.58-10.65Q169.58-9.3 169.91-8.05 170.23-6.8 170.23-5.35L170.23-5.35Q170.23-2.65 168.83-1.25 167.43 0.15 165.58 0.15ZM207.68 0.25L207.68 0.25Q206.03 0.25 204.58-0.53 203.13-1.3 202.23-2.8 201.33-4.3 201.33-6.4L201.33-6.4Q201.33-8.55 202.38-11.25L202.38-11.25Q203.18-11.65 204.28-12.5 205.38-13.35 206.23-14.43 207.08-15.5 207.08-16.55L207.08-16.55Q207.08-17.5 206.36-18.05 205.63-18.6 204.58-18.6L204.58-18.6Q203.28-18.6 202.13-17.8 200.98-17 200.11-15.73 199.23-14.45 198.75-12.98 198.28-11.5 198.28-10.15L198.28-10.15Q198.28-8.85 198.61-7.73 198.93-6.6 198.93-5.15L198.93-5.15Q198.93-2.9 197.73-1.35 196.53 0.2 194.18 0.2L194.18 0.2Q192.03 0.2 190.73-1.25 189.43-2.7 189.43-5.2L189.43-5.2Q189.43-6.5 189.75-8.65 190.08-10.8 190.58-13.4 191.08-16 191.56-18.78 192.03-21.55 192.36-24.13 192.68-26.7 192.68-28.75L192.68-28.75Q192.68-29.85 192.56-30.78 192.43-31.7 192.03-32.25L192.03-32.25 192.03-32.55Q193.13-33.8 194.43-34.4 195.73-35 196.98-35L196.98-35Q198.88-35 200.23-33.65 201.58-32.3 201.58-29.65L201.58-29.65Q201.58-28.25 201.21-26.25 200.83-24.25 200.31-22.05 199.78-19.85 199.23-17.85L199.23-17.85Q200.33-19.45 201.73-21.15 203.13-22.85 204.88-24.03 206.63-25.2 208.83-25.2L208.83-25.2Q211.38-25.2 212.83-23.58 214.28-21.95 214.28-19.7L214.28-19.7Q214.28-17.45 212.66-14.9 211.03-12.35 207.23-10.6L207.23-10.6Q207.88-9.15 209.03-8 210.18-6.85 211.56-6.23 212.93-5.6 214.13-5.6L214.13-5.6Q214.73-5.6 215.18-5.8L215.18-5.8 215.48-5.5Q214.23-2.6 212.06-1.18 209.88 0.25 207.68 0.25ZM235.18 0.25L235.18 0.25Q233.43 0.25 232.13-0.9 230.83-2.05 230.83-4.65L230.83-4.65Q230.83-4.9 230.83-5.15 230.83-5.4 230.88-5.65L230.88-5.65Q229.38-2.65 227.5-1.23 225.63 0.2 223.73 0.2L223.73 0.2Q221.98 0.2 220.43-1.03 218.88-2.25 217.93-4.65 216.98-7.05 216.98-10.45L216.98-10.45Q216.98-13.95 217.95-16.7 218.93-19.45 220.53-21.35 222.13-23.25 224.03-24.23 225.93-25.2 227.73-25.2L227.73-25.2Q229.73-25.2 231.33-23.98 232.93-22.75 233.53-20.1L233.53-20.1Q233.68-20.95 233.75-21.65 233.83-22.35 233.83-22.6L233.83-22.6Q233.88-23.95 235.2-24.6 236.53-25.25 238.13-25.25L238.13-25.25Q239.53-25.25 240.78-24.7 242.03-24.15 242.48-22.85L242.48-22.85 242.58-22.55Q241.98-21.2 241.38-19.3 240.78-17.4 240.28-15.33 239.78-13.25 239.48-11.28 239.18-9.3 239.18-7.8L239.18-7.8Q239.18-6.15 239.53-5.53 239.88-4.9 240.38-4.9L240.38-4.9Q241.23-4.9 241.93-6.1L241.93-6.1 242.33-5.9Q242.33-4.2 241.23-2.8 240.13-1.4 238.48-0.58 236.83 0.25 235.18 0.25ZM227.03-6.1L227.03-6.1Q228.33-6.1 229.9-8.43 231.48-10.75 232.63-15.1L232.63-15.1Q232.73-15.55 232.83-15.98 232.93-16.4 232.98-16.8L232.98-16.8Q232.18-18.65 231.3-19.43 230.43-20.2 229.58-20.2L229.58-20.2Q228.33-20.2 227.25-18.88 226.18-17.55 225.5-15.55 224.83-13.55 224.83-11.55L224.83-11.55Q224.83-8.8 225.45-7.45 226.08-6.1 227.03-6.1ZM251.83 0.2L251.83 0.2Q249.58 0.2 248.05-1.65 246.53-3.5 246.53-6.6L246.53-6.6Q246.53-8.3 246.93-10.25 247.33-12.2 247.73-13.95L247.73-13.95Q248.08-15.25 248.3-16.38 248.53-17.5 248.53-18.2L248.53-18.2Q248.53-19.1 248.15-19.5 247.78-19.9 247.28-19.9L247.28-19.9Q246.78-19.9 246.28-19.58 245.78-19.25 245.48-18.6L245.48-18.6 245.08-18.75Q245.08-20.8 246.08-22.25 247.08-23.7 248.63-24.45 250.18-25.2 251.78-25.2L251.78-25.2Q253.08-25.2 254.28-24.68 255.48-24.15 256.25-23.05 257.03-21.95 257.03-20.3L257.03-20.3Q257.03-19.3 256.75-17.9 256.48-16.5 256.13-15L256.13-15Q255.78-13.45 255.45-11.88 255.13-10.3 255.13-9.1L255.13-9.1Q255.13-8 255.48-7.3 255.83-6.6 256.53-6.6L256.53-6.6Q257.82-6.6 259.45-9 261.07-11.4 262.07-15.45L262.07-15.45Q262.28-16.25 262.43-17.15 262.57-18.05 262.57-19L262.57-19Q262.57-19.75 262.48-20.53 262.38-21.3 262.18-22.1L262.18-22.1 262.18-22.45Q262.98-23.8 264.25-24.5 265.53-25.2 266.82-25.2L266.82-25.2Q268.57-25.2 269.98-24 271.38-22.8 271.38-20.5L271.38-20.5Q271.38-19.15 270.88-17.38 270.38-15.6 269.78-13.7L269.78-13.7Q269.18-11.85 268.68-10.05 268.18-8.25 268.18-6.85L268.18-6.85Q268.18-4.8 269.63-4.8L269.63-4.8Q270.03-4.8 270.6-5.03 271.18-5.25 271.68-5.95L271.68-5.95 272.03-5.85Q272.03-4.05 271.05-2.68 270.07-1.3 268.57-0.55 267.07 0.2 265.48 0.2L265.48 0.2Q263.43 0.2 261.8-1.3 260.18-2.8 260.18-6.2L260.18-6.2 260.18-6.3Q258.13-2.8 255.93-1.3 253.73 0.2 251.83 0.2ZM279.87 10.15L279.87 10.15Q278.42 10.15 277.12 9.63 275.82 9.1 275.32 8.05L275.32 8.05Q276.52 2.95 277.3-1 278.07-4.95 278.52-8.05 278.97-11.15 279.17-13.73 279.37-16.3 279.42-18.7L279.42-18.7Q277.72-18.6 276.17-18.38 274.62-18.15 273.47-17.75L273.47-17.75 273.37-18.1Q274.82-19.55 276.37-20.53 277.92-21.5 279.47-22.1L279.47-22.1 279.47-25.9Q279.47-29.75 281.02-32.18 282.57-34.6 285-35.77 287.42-36.95 290.02-36.95L290.02-36.95Q293.47-36.95 295.2-35.3 296.92-33.65 296.92-31.6L296.92-31.6Q296.92-30.1 296-28.7 295.07-27.3 293.22-26.38 291.37-25.45 288.57-25.45L288.57-25.45Q289.37-26.9 289.8-28.35 290.22-29.8 290.22-30.9L290.22-30.9Q290.22-31.75 289.97-32.27 289.72-32.8 289.27-32.8L289.27-32.8Q288.32-32.8 287.45-30.43 286.57-28.05 286.57-24.2L286.57-24.2 286.57-23.25Q288.02-23.3 289.35-23.2 290.67-23.1 291.82-23L291.82-23Q291.92-22.65 291.97-22.25 292.02-21.85 292.02-21.45L292.02-21.45Q292.02-20.7 291.82-19.95 291.62-19.2 291.27-18.4L291.27-18.4Q290.37-18.5 289.22-18.6 288.07-18.7 286.77-18.75L286.77-18.75 286.77-17.65Q286.77-14.9 286.55-11.3 286.32-7.7 285.72-2.75 285.12 2.2 283.87 9.05L283.87 9.05Q282.32 10.15 279.87 10.15ZM303.02 0.45L303.02 0.45Q299.92 0.45 297.87-0.4 295.82-1.25 294.82-2.58 293.82-3.9 293.82-5.25L293.82-5.25Q293.82-7.15 295.52-8.63 297.22-10.1 300.12-10.1L300.12-10.1Q300.12-7.55 300.77-6.03 301.42-4.5 302.44-3.85 303.47-3.2 304.42-3.2L304.42-3.2Q305.57-3.2 306.34-3.88 307.12-4.55 307.12-5.55L307.12-5.55Q307.12-6.95 305.67-8 304.22-9.05 301.92-10.35L301.92-10.35Q300.77-11.05 299.42-11.98 298.07-12.9 297.12-14.23 296.17-15.55 296.17-17.4L296.17-17.4Q296.17-19.35 297.29-20.85 298.42-22.35 300.27-23.38 302.12-24.4 304.27-24.93 306.42-25.45 308.47-25.45L308.47-25.45Q312.32-25.45 314.27-23.9 316.22-22.35 316.22-20.6L316.22-20.6Q316.22-19.1 314.72-17.9 313.22-16.7 310.12-16.7L310.12-16.7Q310.17-19.25 309.07-20.43 307.97-21.6 306.72-21.6L306.72-21.6Q305.82-21.6 305.22-21.05 304.62-20.5 304.62-19.45L304.62-19.45Q304.62-18.25 305.39-17.38 306.17-16.5 307.34-15.83 308.52-15.15 309.77-14.55L309.77-14.55Q311.47-13.75 312.97-12.85 314.47-11.95 315.42-10.8 316.37-9.65 316.37-8L316.37-8Q316.37-5.75 314.54-3.83 312.72-1.9 309.67-0.73 306.62 0.45 303.02 0.45ZM324.62 0.35L324.62 0.35Q322.67 0.25 321.24-1.03 319.82-2.3 319.27-5.5L319.27-5.5Q321.67-6.25 324.04-8.33 326.42-10.4 328.74-13.13 331.07-15.85 333.32-18.45L333.32-18.45Q332.52-18.95 331.77-19.15 331.02-19.35 330.37-19.35L330.37-19.35Q329.02-19.35 328.19-18.63 327.37-17.9 327.37-16.7L327.37-16.7Q327.37-15.6 328.17-14.2L328.17-14.2Q327.57-14.1 327.02-14.05 326.47-14 326.02-14L326.02-14Q322.87-14 321.37-15.65 319.87-17.3 319.87-19.3L319.87-19.3Q319.87-20.75 320.59-22.13 321.32-23.5 322.77-24.38 324.22-25.25 326.27-25.25L326.27-25.25Q328.17-25.25 330.54-24.33 332.92-23.4 335.77-21.2L335.77-21.2Q337.22-22.75 338.59-23.95 339.97-25.15 341.37-25.8L341.37-25.8Q344.12-25.35 345.29-23.88 346.47-22.4 346.47-20.75L346.47-20.75Q346.47-20.45 346.44-20.2 346.42-19.95 346.37-19.7L346.37-19.7Q343.32-18.45 341.14-16.38 338.97-14.3 337.12-11.83 335.27-9.35 333.07-6.8L333.07-6.8Q333.97-6.05 334.82-5.73 335.67-5.4 336.37-5.4L336.37-5.4Q337.72-5.4 338.57-6.33 339.42-7.25 339.42-8.5L339.42-8.5Q339.42-8.9 339.34-9.3 339.27-9.7 339.02-10.1L339.02-10.1Q339.62-10.2 340.19-10.28 340.77-10.35 341.32-10.35L341.32-10.35Q344.12-10.35 345.42-8.93 346.72-7.5 346.72-5.65L346.72-5.65Q346.72-4.25 345.97-2.85 345.22-1.45 343.77-0.55 342.32 0.35 340.27 0.35L340.27 0.35Q338.37 0.35 335.94-0.7 333.52-1.75 330.67-4.2L330.67-4.2Q329.42-2.95 327.92-1.8 326.42-0.65 324.62 0.35ZM359.01-26.75L359.01-26.75Q357.01-26.75 355.74-27.98 354.47-29.2 354.47-31.05L354.47-31.05Q354.47-33.05 355.97-34.5 357.47-35.95 359.62-35.95L359.62-35.95Q361.62-35.95 362.89-34.7 364.17-33.45 364.17-31.6L364.17-31.6Q364.17-29.6 362.67-28.18 361.17-26.75 359.01-26.75ZM355.51 0.2L355.51 0.2Q353.56 0.2 352.01-1.18 350.47-2.55 350.47-5.6L350.47-5.6Q350.47-7.35 350.94-8.88 351.42-10.4 352.04-11.85 352.67-13.3 353.14-14.68 353.62-16.05 353.62-17.4L353.62-17.4Q353.62-18.6 353.22-19.13 352.81-19.65 352.26-19.65L352.26-19.65Q351.42-19.65 350.62-18.55L350.62-18.55 350.26-18.75Q350.47-20.75 351.54-22.18 352.62-23.6 354.19-24.4 355.76-25.2 357.31-25.2L357.31-25.2Q359.22-25.2 360.62-23.98 362.01-22.75 362.01-20L362.01-20Q362.01-18.35 361.54-16.53 361.06-14.7 360.44-12.9 359.81-11.1 359.34-9.55 358.87-8 358.87-6.9L358.87-6.9Q358.87-5.95 359.24-5.55 359.62-5.15 360.06-5.15L360.06-5.15Q360.51-5.15 360.94-5.43 361.37-5.7 361.56-6.05L361.56-6.05 361.92-5.95Q361.92-4.1 360.94-2.73 359.97-1.35 358.51-0.58 357.06 0.2 355.51 0.2ZM376.61 0.35L376.61 0.35Q372.96 0.35 370.56-1.13 368.16-2.6 366.96-5.03 365.76-7.45 365.76-10.25L365.76-10.25Q365.76-12.9 366.79-15.58 367.81-18.25 369.79-20.45 371.76-22.65 374.59-24 377.41-25.35 380.96-25.35L380.96-25.35Q385.36-25.35 387.39-23.38 389.41-21.4 389.41-18.6L389.41-18.6Q389.41-16.2 388.14-14.18 386.86-12.15 384.76-10.93 382.66-9.7 380.16-9.7L380.16-9.7Q378.86-9.7 377.51-10.1 376.16-10.5 374.86-11.35L374.86-11.35Q375.11-8.25 376.66-6.85 378.21-5.45 380.36-5.45L380.36-5.45Q381.86-5.45 383.36-6.03 384.86-6.6 386.14-7.53 387.41-8.45 388.11-9.5L388.11-9.5 388.46-9.25Q388.46-6.65 387.39-4.83 386.31-3 384.56-1.85 382.81-0.7 380.74-0.18 378.66 0.35 376.61 0.35ZM377.76-13.15L377.76-13.15Q379.36-13.15 380.36-14.08 381.36-15 381.86-16.25 382.36-17.5 382.36-18.45L382.36-18.45Q382.36-19.6 381.71-20.38 381.06-21.15 379.91-21.15L379.91-21.15Q379.01-21.15 377.94-20.5 376.86-19.85 376.01-18.28 375.16-16.7 374.91-13.9L374.91-13.9Q376.51-13.15 377.76-13.15ZM397.61 0.2L397.61 0.2Q396.26 0.2 394.99-0.48 393.71-1.15 392.91-2.65 392.11-4.15 392.11-6.5L392.11-6.5Q392.11-8.6 392.69-11.43 393.26-14.25 393.99-17.3 394.71-20.35 395.26-23.25 395.81-26.15 395.76-28.4L395.76-28.4Q395.76-30.55 395.26-31.45L395.26-31.45 395.21-31.6Q395.76-33.2 397.16-34.1 398.56-35 400.11-35L400.11-35Q401.86-35 403.24-33.68 404.61-32.35 404.61-29.25L404.61-29.25Q404.61-27.6 404.21-25.33 403.81-23.05 403.26-20.48 402.71-17.9 402.14-15.4 401.56-12.9 401.16-10.8 400.76-8.7 400.76-7.35L400.76-7.35Q400.76-5.95 401.16-5.43 401.56-4.9 402.06-4.9L402.06-4.9Q402.61-4.9 403.11-5.33 403.61-5.75 403.76-6.1L403.76-6.1 404.16-6Q404.11-4.2 403.14-2.8 402.16-1.4 400.69-0.6 399.21 0.2 397.61 0.2ZM405.81 7.55L405.81 7.55Q405.41 7.15 405.16 6.4L405.16 6.4Q406.86 5.25 407.41 3.98 407.96 2.7 407.96 1.3L407.96 1.3Q407.96-0.2 407.63-1.68 407.31-3.15 407.31-4.4L407.31-4.4Q407.31-6.65 408.68-7.95 410.06-9.25 412.36-9.25L412.36-9.25Q414.81-9.25 415.98-7.88 417.16-6.5 417.16-4.45L417.16-4.45Q417.16-2.35 415.88 0.1 414.61 2.55 412.11 4.58 409.61 6.6 405.81 7.55ZM435.8 0.2L435.8 0.2Q433.55 0.2 432.03-1.65 430.5-3.5 430.5-6.6L430.5-6.6Q430.5-8.3 430.9-10.25 431.3-12.2 431.7-13.95L431.7-13.95Q432.05-15.25 432.28-16.38 432.5-17.5 432.5-18.2L432.5-18.2Q432.5-19.1 432.13-19.5 431.75-19.9 431.25-19.9L431.25-19.9Q430.75-19.9 430.25-19.58 429.75-19.25 429.45-18.6L429.45-18.6 429.05-18.75Q429.05-20.8 430.05-22.25 431.05-23.7 432.6-24.45 434.15-25.2 435.75-25.2L435.75-25.2Q437.05-25.2 438.25-24.68 439.45-24.15 440.23-23.05 441-21.95 441-20.3L441-20.3Q441-19.3 440.73-17.9 440.45-16.5 440.1-15L440.1-15Q439.75-13.45 439.43-11.88 439.1-10.3 439.1-9.1L439.1-9.1Q439.1-8 439.45-7.3 439.8-6.6 440.5-6.6L440.5-6.6Q441.8-6.6 443.43-9 445.05-11.4 446.05-15.45L446.05-15.45Q446.25-16.25 446.4-17.15 446.55-18.05 446.55-19L446.55-19Q446.55-19.75 446.45-20.53 446.35-21.3 446.15-22.1L446.15-22.1 446.15-22.45Q446.95-23.8 448.23-24.5 449.5-25.2 450.8-25.2L450.8-25.2Q452.55-25.2 453.95-24 455.35-22.8 455.35-20.5L455.35-20.5Q455.35-19.15 454.85-17.38 454.35-15.6 453.75-13.7L453.75-13.7Q453.15-11.85 452.65-10.05 452.15-8.25 452.15-6.85L452.15-6.85Q452.15-4.8 453.6-4.8L453.6-4.8Q454-4.8 454.58-5.03 455.15-5.25 455.65-5.95L455.65-5.95 456-5.85Q456-4.05 455.03-2.68 454.05-1.3 452.55-0.55 451.05 0.2 449.45 0.2L449.45 0.2Q447.4 0.2 445.78-1.3 444.15-2.8 444.15-6.2L444.15-6.2 444.15-6.3Q442.1-2.8 439.9-1.3 437.7 0.2 435.8 0.2ZM464.45 0.15L464.45 0.15Q462.6 0.15 461.1-1.33 459.6-2.8 459.6-5.45L459.6-5.45Q459.6-6.75 459.95-8.4 460.3-10.05 460.73-11.75 461.15-13.45 461.5-14.95 461.85-16.45 461.85-17.4L461.85-17.4Q461.85-18.4 461.45-18.98 461.05-19.55 460.4-19.55L460.4-19.55Q459.55-19.55 458.55-18.55L458.55-18.55 458.25-18.75Q458.2-19.55 458.6-20.65 459-21.75 459.83-22.78 460.65-23.8 461.95-24.5 463.25-25.2 465.05-25.2L465.05-25.2Q467.7-25.2 468.98-23.68 470.25-22.15 470.25-19.95L470.25-19.95Q470.25-19.15 470.1-18.4L470.1-18.4Q471.15-19.95 472.7-21.53 474.25-23.1 476.13-24.15 478-25.2 480-25.2L480-25.2Q482.35-25.2 483.2-23.7 484.05-22.2 484.05-19.95L484.05-19.95Q484.05-17.85 483.6-15.45 483.15-13.05 482.7-10.83 482.25-8.6 482.25-7.1L482.25-7.1Q482.25-5.1 483.4-5.1L483.4-5.1Q484-5.1 484.45-5.48 484.9-5.85 485.05-6.2L485.05-6.2 485.4-6.05Q485.4-4.2 484.38-2.8 483.35-1.4 481.8-0.63 480.25 0.15 478.65 0.15L478.65 0.15Q476.7 0.15 475.2-1.2 473.7-2.55 473.7-5.6L473.7-5.6Q473.7-7.4 474.18-9.5 474.65-11.6 475.1-13.55 475.55-15.5 475.55-16.75L475.55-16.75Q475.55-17.5 475.28-17.93 475-18.35 474.3-18.35L474.3-18.35Q473.15-18.35 471.78-17.3 470.4-16.25 469.43-14.5 468.45-12.75 468.45-10.65L468.45-10.65Q468.45-9.3 468.78-8.05 469.1-6.8 469.1-5.35L469.1-5.35Q469.1-2.65 467.7-1.25 466.3 0.15 464.45 0.15ZM496.55 0.45L496.55 0.45Q493.45 0.45 491.4-0.4 489.35-1.25 488.35-2.58 487.35-3.9 487.35-5.25L487.35-5.25Q487.35-7.15 489.05-8.63 490.75-10.1 493.65-10.1L493.65-10.1Q493.65-7.55 494.3-6.03 494.95-4.5 495.97-3.85 497-3.2 497.95-3.2L497.95-3.2Q499.1-3.2 499.87-3.88 500.65-4.55 500.65-5.55L500.65-5.55Q500.65-6.95 499.2-8 497.75-9.05 495.45-10.35L495.45-10.35Q494.3-11.05 492.95-11.98 491.6-12.9 490.65-14.23 489.7-15.55 489.7-17.4L489.7-17.4Q489.7-19.35 490.82-20.85 491.95-22.35 493.8-23.38 495.65-24.4 497.8-24.93 499.95-25.45 502-25.45L502-25.45Q505.85-25.45 507.8-23.9 509.75-22.35 509.75-20.6L509.75-20.6Q509.75-19.1 508.25-17.9 506.75-16.7 503.65-16.7L503.65-16.7Q503.7-19.25 502.6-20.43 501.5-21.6 500.25-21.6L500.25-21.6Q499.35-21.6 498.75-21.05 498.15-20.5 498.15-19.45L498.15-19.45Q498.15-18.25 498.92-17.38 499.7-16.5 500.87-15.83 502.05-15.15 503.3-14.55L503.3-14.55Q505-13.75 506.5-12.85 508-11.95 508.95-10.8 509.9-9.65 509.9-8L509.9-8Q509.9-5.75 508.07-3.83 506.25-1.9 503.2-0.73 500.15 0.45 496.55 0.45ZM523.55 0.35L523.55 0.35Q519.89 0.35 517.5-1.13 515.1-2.6 513.89-5.03 512.7-7.45 512.7-10.25L512.7-10.25Q512.7-12.9 513.72-15.58 514.75-18.25 516.72-20.45 518.7-22.65 521.52-24 524.35-25.35 527.89-25.35L527.89-25.35Q532.3-25.35 534.32-23.38 536.35-21.4 536.35-18.6L536.35-18.6Q536.35-16.2 535.07-14.18 533.8-12.15 531.7-10.93 529.6-9.7 527.1-9.7L527.1-9.7Q525.8-9.7 524.45-10.1 523.1-10.5 521.8-11.35L521.8-11.35Q522.05-8.25 523.6-6.85 525.14-5.45 527.3-5.45L527.3-5.45Q528.8-5.45 530.3-6.03 531.8-6.6 533.07-7.53 534.35-8.45 535.05-9.5L535.05-9.5 535.39-9.25Q535.39-6.65 534.32-4.83 533.25-3 531.5-1.85 529.75-0.7 527.67-0.18 525.6 0.35 523.55 0.35ZM524.7-13.15L524.7-13.15Q526.3-13.15 527.3-14.08 528.3-15 528.8-16.25 529.3-17.5 529.3-18.45L529.3-18.45Q529.3-19.6 528.64-20.38 528-21.15 526.85-21.15L526.85-21.15Q525.95-21.15 524.87-20.5 523.8-19.85 522.95-18.28 522.1-16.7 521.85-13.9L521.85-13.9Q523.45-13.15 524.7-13.15ZM544.69 0.2L544.69 0.2Q542.89 0.2 541.49-1.28 540.09-2.75 540.09-5.45L540.09-5.45Q540.09-6.75 540.39-8.4 540.69-10.05 541.09-11.78 541.49-13.5 541.79-15.03 542.09-16.55 542.09-17.55L542.09-17.55Q542.09-18.6 541.72-19.23 541.34-19.85 540.74-19.85L540.74-19.85Q539.79-19.85 538.79-18.55L538.79-18.55 538.49-18.75Q538.44-19.55 538.84-20.65 539.24-21.75 540.09-22.78 540.94-23.8 542.27-24.5 543.59-25.2 545.39-25.2L545.39-25.2Q548.04-25.2 549.24-23.68 550.44-22.15 550.44-20L550.44-20Q550.44-19.65 550.42-19.28 550.39-18.9 550.34-18.55L550.34-18.55Q552.14-21.8 554.12-23.53 556.09-25.25 557.79-25.25L557.79-25.25Q559.39-25.25 560.14-24 560.89-22.75 560.89-21L560.89-21Q560.89-19.4 560.27-17.75 559.64-16.1 558.42-15.03 557.19-13.95 555.44-14L555.44-14 555.24-14.1Q555.19-15.4 554.39-16.15 553.59-16.9 552.59-16.9L552.59-16.9Q551.24-16.9 550.07-15.55 548.89-14.2 548.89-11.65L548.89-11.65Q548.89-10.1 549.24-8.3 549.59-6.5 549.59-5.25L549.59-5.25Q549.59-3.75 548.89-2.5 548.19-1.25 547.09-0.53 545.99 0.2 544.69 0.2ZM573.14 0.35L573.14 0.35Q569.49 0.35 567.09-1.13 564.69-2.6 563.49-5.03 562.29-7.45 562.29-10.25L562.29-10.25Q562.29-12.9 563.31-15.58 564.34-18.25 566.31-20.45 568.29-22.65 571.11-24 573.94-25.35 577.49-25.35L577.49-25.35Q581.89-25.35 583.91-23.38 585.94-21.4 585.94-18.6L585.94-18.6Q585.94-16.2 584.66-14.18 583.39-12.15 581.29-10.93 579.19-9.7 576.69-9.7L576.69-9.7Q575.39-9.7 574.04-10.1 572.69-10.5 571.39-11.35L571.39-11.35Q571.64-8.25 573.19-6.85 574.74-5.45 576.89-5.45L576.89-5.45Q578.39-5.45 579.89-6.03 581.39-6.6 582.66-7.53 583.94-8.45 584.64-9.5L584.64-9.5 584.99-9.25Q584.99-6.65 583.91-4.83 582.84-3 581.09-1.85 579.34-0.7 577.26-0.18 575.19 0.35 573.14 0.35ZM574.29-13.15L574.29-13.15Q575.89-13.15 576.89-14.08 577.89-15 578.39-16.25 578.89-17.5 578.89-18.45L578.89-18.45Q578.89-19.6 578.24-20.38 577.59-21.15 576.44-21.15L576.44-21.15Q575.54-21.15 574.46-20.5 573.39-19.85 572.54-18.28 571.69-16.7 571.44-13.9L571.44-13.9Q573.04-13.15 574.29-13.15ZM619.83 0.35L619.83 0.35Q618.03 0.35 615.76-0.3 613.48-0.95 611.01-1.73 608.53-2.5 606.08-2.85L606.08-2.85Q604.38-1.25 602.91-0.58 601.43 0.1 600.28 0.1L600.28 0.1Q598.83 0.1 597.83-0.75 596.83-1.6 596.33-2.93 595.83-4.25 595.83-5.65L595.83-5.65Q595.83-7.1 596.36-8.4 596.88-9.7 597.98-10.53 599.08-11.35 600.78-11.35L600.78-11.35Q601.13-11.35 601.53-11.3 601.93-11.25 602.38-11.15L602.38-11.15Q603.33-14.05 604.06-17.57 604.78-21.1 605.21-24.5 605.63-27.9 605.63-30.4L605.63-30.4Q605.63-31.4 605.53-31.83 605.43-32.25 605.18-32.7L605.18-32.7 605.13-32.85Q605.73-34.45 607.13-35.35 608.53-36.25 610.08-36.25L610.08-36.25Q611.78-36.25 612.88-35.02 613.98-33.8 613.98-30.95L613.98-30.95Q613.98-29.15 613.56-26.48 613.13-23.8 612.38-20.73 611.63-17.65 610.73-14.65 609.83-11.65 608.93-9.3L608.93-9.3Q611.13-8.8 613.36-8.15 615.58-7.5 617.73-7.5L617.73-7.5Q619.38-7.5 620.91-8.1 622.43-8.7 623.78-10.3L623.78-10.3Q624.78-9.65 625.26-8.45 625.73-7.25 625.73-5.9L625.73-5.9Q625.73-4.4 625.11-2.98 624.48-1.55 623.18-0.6 621.88 0.35 619.83 0.35ZM639.38 0.35L639.38 0.35Q635.73 0.35 633.33-1.13 630.93-2.6 629.73-5.03 628.53-7.45 628.53-10.25L628.53-10.25Q628.53-12.9 629.56-15.58 630.58-18.25 632.56-20.45 634.53-22.65 637.36-24 640.18-25.35 643.73-25.35L643.73-25.35Q648.13-25.35 650.16-23.38 652.18-21.4 652.18-18.6L652.18-18.6Q652.18-16.2 650.91-14.18 649.63-12.15 647.53-10.93 645.43-9.7 642.93-9.7L642.93-9.7Q641.63-9.7 640.28-10.1 638.93-10.5 637.63-11.35L637.63-11.35Q637.88-8.25 639.43-6.85 640.98-5.45 643.13-5.45L643.13-5.45Q644.63-5.45 646.13-6.03 647.63-6.6 648.91-7.53 650.18-8.45 650.88-9.5L650.88-9.5 651.23-9.25Q651.23-6.65 650.16-4.83 649.08-3 647.33-1.85 645.58-0.7 643.51-0.18 641.43 0.35 639.38 0.35ZM640.53-13.15L640.53-13.15Q642.13-13.15 643.13-14.08 644.13-15 644.63-16.25 645.13-17.5 645.13-18.45L645.13-18.45Q645.13-19.6 644.48-20.38 643.83-21.15 642.68-21.15L642.68-21.15Q641.78-21.15 640.71-20.5 639.63-19.85 638.78-18.28 637.93-16.7 637.68-13.9L637.68-13.9Q639.28-13.15 640.53-13.15ZM664.08-26.75L664.08-26.75Q662.08-26.75 660.8-27.98 659.53-29.2 659.53-31.05L659.53-31.05Q659.53-33.05 661.03-34.5 662.53-35.95 664.68-35.95L664.68-35.95Q666.68-35.95 667.95-34.7 669.23-33.45 669.23-31.6L669.23-31.6Q669.23-29.6 667.73-28.18 666.23-26.75 664.08-26.75ZM660.58 0.2L660.58 0.2Q658.63 0.2 657.08-1.18 655.53-2.55 655.53-5.6L655.53-5.6Q655.53-7.35 656-8.88 656.48-10.4 657.1-11.85 657.73-13.3 658.2-14.68 658.68-16.05 658.68-17.4L658.68-17.4Q658.68-18.6 658.28-19.13 657.88-19.65 657.33-19.65L657.33-19.65Q656.48-19.65 655.68-18.55L655.68-18.55 655.33-18.75Q655.53-20.75 656.6-22.18 657.68-23.6 659.25-24.4 660.83-25.2 662.38-25.2L662.38-25.2Q664.28-25.2 665.68-23.98 667.08-22.75 667.08-20L667.08-20Q667.08-18.35 666.6-16.53 666.13-14.7 665.5-12.9 664.88-11.1 664.4-9.55 663.93-8 663.93-6.9L663.93-6.9Q663.93-5.95 664.3-5.55 664.68-5.15 665.13-5.15L665.13-5.15Q665.58-5.15 666-5.43 666.43-5.7 666.63-6.05L666.63-6.05 666.98-5.95Q666.98-4.1 666-2.73 665.03-1.35 663.58-0.58 662.13 0.2 660.58 0.2ZM678.08 0.2L678.08 0.2Q676.28 0.2 674.7-1.05 673.13-2.3 672.15-4.7 671.18-7.1 671.18-10.5L671.18-10.5Q671.18-14 672.18-16.75 673.18-19.5 674.8-21.43 676.43-23.35 678.35-24.35 680.28-25.35 682.13-25.35L682.13-25.35Q684.18-25.35 685.78-24.08 687.38-22.8 687.98-20.1L687.98-20.1Q688.43-22.6 688.75-24.88 689.08-27.15 689.08-28.9L689.08-28.9Q689.08-31.2 688.48-32.25L688.48-32.25 688.48-32.55Q689.63-33.85 691-34.48 692.38-35.1 693.63-35.1L693.63-35.1Q695.28-35.1 696.43-34.08 697.58-33.05 697.58-31.15L697.58-31.15Q697.58-30.1 697.23-28.05 696.88-26 696.38-23.38 695.88-20.75 695.35-17.98 694.83-15.2 694.48-12.68 694.13-10.15 694.13-8.3L694.13-8.3Q694.13-6.75 694.45-5.83 694.78-4.9 695.53-4.9L695.53-4.9Q696.08-4.9 696.65-5.28 697.23-5.65 697.43-6.15L697.43-6.15 697.78-5.9Q697.78-4.25 696.73-2.88 695.68-1.5 694.08-0.65 692.48 0.2 690.78 0.2L690.78 0.2Q688.93 0.2 687.85-0.83 686.78-1.85 686.33-3.45 685.88-5.05 685.83-6.75L685.83-6.75Q684.28-3.15 682.2-1.48 680.13 0.2 678.08 0.2ZM681.43-6.15L681.43-6.15Q682.73-6.15 684.33-8.5 685.93-10.85 687.13-15.35L687.13-15.35 687.43-16.9Q686.63-18.75 685.7-19.53 684.78-20.3 683.93-20.3L683.93-20.3Q682.68-20.3 681.58-18.93 680.48-17.55 679.8-15.43 679.13-13.3 679.13-10.95L679.13-10.95Q679.13-8.7 679.78-7.43 680.43-6.15 681.43-6.15ZM710.77 0.35L710.77 0.35Q707.12 0.35 704.72-1.13 702.32-2.6 701.12-5.03 699.92-7.45 699.92-10.25L699.92-10.25Q699.92-12.9 700.95-15.58 701.97-18.25 703.95-20.45 705.92-22.65 708.75-24 711.57-25.35 715.12-25.35L715.12-25.35Q719.52-25.35 721.55-23.38 723.57-21.4 723.57-18.6L723.57-18.6Q723.57-16.2 722.3-14.18 721.02-12.15 718.92-10.93 716.82-9.7 714.32-9.7L714.32-9.7Q713.02-9.7 711.67-10.1 710.32-10.5 709.02-11.35L709.02-11.35Q709.27-8.25 710.82-6.85 712.37-5.45 714.52-5.45L714.52-5.45Q716.02-5.45 717.52-6.03 719.02-6.6 720.3-7.53 721.57-8.45 722.27-9.5L722.27-9.5 722.62-9.25Q722.62-6.65 721.55-4.83 720.47-3 718.72-1.85 716.97-0.7 714.9-0.18 712.82 0.35 710.77 0.35ZM711.92-13.15L711.92-13.15Q713.52-13.15 714.52-14.08 715.52-15 716.02-16.25 716.52-17.5 716.52-18.45L716.52-18.45Q716.52-19.6 715.87-20.38 715.22-21.15 714.07-21.15L714.07-21.15Q713.17-21.15 712.1-20.5 711.02-19.85 710.17-18.28 709.32-16.7 709.07-13.9L709.07-13.9Q710.67-13.15 711.92-13.15ZM731.92 0.15L731.92 0.15Q730.07 0.15 728.57-1.33 727.07-2.8 727.07-5.45L727.07-5.45Q727.07-6.75 727.42-8.4 727.77-10.05 728.2-11.75 728.62-13.45 728.97-14.95 729.32-16.45 729.32-17.4L729.32-17.4Q729.32-18.4 728.92-18.98 728.52-19.55 727.87-19.55L727.87-19.55Q727.02-19.55 726.02-18.55L726.02-18.55 725.72-18.75Q725.67-19.55 726.07-20.65 726.47-21.75 727.3-22.78 728.12-23.8 729.42-24.5 730.72-25.2 732.52-25.2L732.52-25.2Q735.17-25.2 736.45-23.68 737.72-22.15 737.72-19.95L737.72-19.95Q737.72-19.15 737.57-18.4L737.57-18.4Q738.62-19.95 740.17-21.53 741.72-23.1 743.6-24.15 745.47-25.2 747.47-25.2L747.47-25.2Q749.82-25.2 750.67-23.7 751.52-22.2 751.52-19.95L751.52-19.95Q751.52-17.85 751.07-15.45 750.62-13.05 750.17-10.83 749.72-8.6 749.72-7.1L749.72-7.1Q749.72-5.1 750.87-5.1L750.87-5.1Q751.47-5.1 751.92-5.48 752.37-5.85 752.52-6.2L752.52-6.2 752.87-6.05Q752.87-4.2 751.85-2.8 750.82-1.4 749.27-0.63 747.72 0.15 746.12 0.15L746.12 0.15Q744.17 0.15 742.67-1.2 741.17-2.55 741.17-5.6L741.17-5.6Q741.17-7.4 741.65-9.5 742.12-11.6 742.57-13.55 743.02-15.5 743.02-16.75L743.02-16.75Q743.02-17.5 742.75-17.93 742.47-18.35 741.77-18.35L741.77-18.35Q740.62-18.35 739.25-17.3 737.87-16.25 736.9-14.5 735.92-12.75 735.92-10.65L735.92-10.65Q735.92-9.3 736.25-8.05 736.57-6.8 736.57-5.35L736.57-5.35Q736.57-2.65 735.17-1.25 733.77 0.15 731.92 0.15ZM764.02 0.45L764.02 0.45Q760.92 0.45 758.87-0.4 756.82-1.25 755.82-2.58 754.82-3.9 754.82-5.25L754.82-5.25Q754.82-7.15 756.52-8.63 758.22-10.1 761.12-10.1L761.12-10.1Q761.12-7.55 761.77-6.03 762.42-4.5 763.44-3.85 764.47-3.2 765.42-3.2L765.42-3.2Q766.57-3.2 767.34-3.88 768.12-4.55 768.12-5.55L768.12-5.55Q768.12-6.95 766.67-8 765.22-9.05 762.92-10.35L762.92-10.35Q761.77-11.05 760.42-11.98 759.07-12.9 758.12-14.23 757.17-15.55 757.17-17.4L757.17-17.4Q757.17-19.35 758.29-20.85 759.42-22.35 761.27-23.38 763.12-24.4 765.27-24.93 767.42-25.45 769.47-25.45L769.47-25.45Q773.32-25.45 775.27-23.9 777.22-22.35 777.22-20.6L777.22-20.6Q777.22-19.1 775.72-17.9 774.22-16.7 771.12-16.7L771.12-16.7Q771.17-19.25 770.07-20.43 768.97-21.6 767.72-21.6L767.72-21.6Q766.82-21.6 766.22-21.05 765.62-20.5 765.62-19.45L765.62-19.45Q765.62-18.25 766.39-17.38 767.17-16.5 768.34-15.83 769.52-15.15 770.77-14.55L770.77-14.55Q772.47-13.75 773.97-12.85 775.47-11.95 776.42-10.8 777.37-9.65 777.37-8L777.37-8Q777.37-5.75 775.54-3.83 773.72-1.9 770.67-0.73 767.62 0.45 764.02 0.45ZM789.92 0.35L789.92 0.35Q786.62 0.35 784.34-1.15 782.07-2.65 780.92-5.08 779.77-7.5 779.77-10.3L779.77-10.3Q779.77-12.95 780.79-15.6 781.82-18.25 783.82-20.48 785.82-22.7 788.69-24.03 791.57-25.35 795.32-25.35L795.32-25.35Q799.02-25.35 800.82-23.88 802.62-22.4 802.62-20.65L802.62-20.65Q802.62-18.8 800.77-17.25 798.92-15.7 795.37-15.7L795.37-15.7Q795.57-16.45 795.69-17.23 795.82-18 795.82-18.7L795.82-18.7Q795.82-19.75 795.37-20.48 794.92-21.2 793.77-21.2L793.77-21.2Q792.72-21.2 791.54-20.25 790.37-19.3 789.54-17.45 788.72-15.6 788.72-12.9L788.72-12.9Q788.72-10.25 789.59-8.6 790.47-6.95 791.87-6.23 793.27-5.5 794.82-5.5L794.82-5.5Q796.87-5.5 798.77-6.58 800.67-7.65 801.52-9.55L801.52-9.55 802.02-9.35Q802.02-6.75 800.84-4.93 799.67-3.1 797.82-1.93 795.97-0.75 793.87-0.2 791.77 0.35 789.92 0.35ZM809.71 0.2L809.71 0.2Q807.56 0.2 806.26-1.25 804.96-2.7 804.96-5.2L804.96-5.2Q804.96-6.55 805.31-8.72 805.66-10.9 806.19-13.53 806.71-16.15 807.21-18.88 807.71-21.6 808.06-24.15 808.41-26.7 808.41-28.65L808.41-28.65Q808.41-31.1 807.76-32.2L807.76-32.2 807.76-32.5Q808.86-33.75 810.16-34.35 811.46-34.95 812.71-34.95L812.71-34.95Q814.61-34.95 815.96-33.6 817.31-32.25 817.31-29.55L817.31-29.55Q817.31-28.1 816.91-26 816.51-23.9 815.96-21.6 815.41-19.3 814.86-17.3L814.86-17.3Q815.81-19.15 817.39-20.98 818.96-22.8 820.99-24 823.01-25.2 825.21-25.2L825.21-25.2Q827.71-25.2 828.59-23.65 829.46-22.1 829.46-19.8L829.46-19.8Q829.46-17.7 829.01-15.33 828.56-12.95 828.11-10.78 827.66-8.6 827.66-7.15L827.66-7.15Q827.66-5.05 828.91-5.05L828.91-5.05Q829.46-5.05 829.89-5.38 830.31-5.7 830.51-6.1L830.51-6.1 830.86-5.85Q830.86-3.9 829.91-2.55 828.96-1.2 827.49-0.5 826.01 0.2 824.46 0.2L824.46 0.2Q822.41 0.2 820.76-1.18 819.11-2.55 819.11-5.65L819.11-5.65Q819.11-7.4 819.59-9.45 820.06-11.5 820.51-13.43 820.96-15.35 820.96-16.65L820.96-16.65Q820.96-18.35 819.76-18.35L819.76-18.35Q818.66-18.35 817.36-17.25 816.06-16.15 815.09-14.5 814.11-12.85 813.81-11.25L813.81-11.25Q813.71-10.85 813.71-10.3L813.71-10.3Q813.71-9.05 814.09-7.9 814.46-6.75 814.46-5.2L814.46-5.2Q814.46-2.9 813.26-1.35 812.06 0.2 809.71 0.2ZM851.71 0.25L851.71 0.25Q849.96 0.25 848.66-0.9 847.36-2.05 847.36-4.65L847.36-4.65Q847.36-4.9 847.36-5.15 847.36-5.4 847.41-5.65L847.41-5.65Q845.91-2.65 844.04-1.23 842.16 0.2 840.26 0.2L840.26 0.2Q838.51 0.2 836.96-1.03 835.41-2.25 834.46-4.65 833.51-7.05 833.51-10.45L833.51-10.45Q833.51-13.95 834.49-16.7 835.46-19.45 837.06-21.35 838.66-23.25 840.56-24.23 842.46-25.2 844.26-25.2L844.26-25.2Q846.26-25.2 847.86-23.98 849.46-22.75 850.06-20.1L850.06-20.1Q850.21-20.95 850.29-21.65 850.36-22.35 850.36-22.6L850.36-22.6Q850.41-23.95 851.74-24.6 853.06-25.25 854.66-25.25L854.66-25.25Q856.06-25.25 857.31-24.7 858.56-24.15 859.01-22.85L859.01-22.85 859.11-22.55Q858.51-21.2 857.91-19.3 857.31-17.4 856.81-15.33 856.31-13.25 856.01-11.28 855.71-9.3 855.71-7.8L855.71-7.8Q855.71-6.15 856.06-5.53 856.41-4.9 856.91-4.9L856.91-4.9Q857.76-4.9 858.46-6.1L858.46-6.1 858.86-5.9Q858.86-4.2 857.76-2.8 856.66-1.4 855.01-0.58 853.36 0.25 851.71 0.25ZM843.56-6.1L843.56-6.1Q844.86-6.1 846.44-8.43 848.01-10.75 849.16-15.1L849.16-15.1Q849.26-15.55 849.36-15.98 849.46-16.4 849.51-16.8L849.51-16.8Q848.71-18.65 847.84-19.43 846.96-20.2 846.11-20.2L846.11-20.2Q844.86-20.2 843.79-18.88 842.71-17.55 842.04-15.55 841.36-13.55 841.36-11.55L841.36-11.55Q841.36-8.8 841.99-7.45 842.61-6.1 843.56-6.1ZM866.96 10.15L866.96 10.15Q865.51 10.15 864.21 9.63 862.91 9.1 862.41 8.05L862.41 8.05Q863.61 2.95 864.38-1 865.16-4.95 865.61-8.05 866.06-11.15 866.26-13.73 866.46-16.3 866.51-18.7L866.51-18.7Q864.81-18.6 863.26-18.38 861.71-18.15 860.56-17.75L860.56-17.75 860.46-18.1Q861.91-19.55 863.46-20.53 865.01-21.5 866.56-22.1L866.56-22.1 866.56-25.9Q866.56-29.75 868.11-32.18 869.66-34.6 872.08-35.77 874.51-36.95 877.11-36.95L877.11-36.95Q880.56-36.95 882.28-35.3 884.01-33.65 884.01-31.6L884.01-31.6Q884.01-30.1 883.08-28.7 882.16-27.3 880.31-26.38 878.46-25.45 875.66-25.45L875.66-25.45Q876.46-26.9 876.88-28.35 877.31-29.8 877.31-30.9L877.31-30.9Q877.31-31.75 877.06-32.27 876.81-32.8 876.36-32.8L876.36-32.8Q875.41-32.8 874.53-30.43 873.66-28.05 873.66-24.2L873.66-24.2 873.66-23.25Q875.11-23.3 876.43-23.2 877.76-23.1 878.91-23L878.91-23Q879.01-22.65 879.06-22.25 879.11-21.85 879.11-21.45L879.11-21.45Q879.11-20.7 878.91-19.95 878.71-19.2 878.36-18.4L878.36-18.4Q877.46-18.5 876.31-18.6 875.16-18.7 873.86-18.75L873.86-18.75 873.86-17.65Q873.86-14.9 873.63-11.3 873.41-7.7 872.81-2.75 872.21 2.2 870.96 9.05L870.96 9.05Q869.41 10.15 866.96 10.15ZM888.71 0.2L888.71 0.2Q887.11 0.2 885.68-0.53 884.26-1.25 883.38-2.8 882.51-4.35 882.51-6.75L882.51-6.75Q882.51-8.05 882.76-10.15 883.01-12.25 883.43-14.75 883.86-17.25 884.31-19.75L884.31-19.75Q883.31-19.7 882.38-19.55 881.46-19.4 880.56-19.2L880.56-19.2 880.46-19.55Q881.46-20.75 882.56-21.6 883.66-22.45 884.86-23L884.86-23Q885.51-26.3 885.96-28.73 886.41-31.15 886.41-31.6L886.41-31.6Q886.41-32.45 887.73-33 889.06-33.55 890.71-33.55L890.71-33.55Q892.16-33.55 893.43-33 894.71-32.45 895.16-31.15L895.16-31.15Q894.86-30.85 894.31-28.93 893.76-27 893.16-24.25L893.16-24.25Q894.11-24.2 895.11-24.15 896.11-24.1 897.16-24L897.16-24Q897.26-23.7 897.31-23.35 897.36-23 897.36-22.6L897.36-22.6Q897.36-21.85 897.13-20.98 896.91-20.1 896.61-19.4L896.61-19.4Q895.41-19.5 894.36-19.63 893.31-19.75 892.31-19.8L892.31-19.8Q891.91-17.65 891.58-15.5 891.26-13.35 891.08-11.6 890.91-9.85 890.91-8.85L890.91-8.85Q890.91-6.75 891.68-6.05 892.46-5.35 893.56-5.35L893.56-5.35Q894.56-5.35 895.36-5.75 896.16-6.15 896.51-6.7L896.51-6.7 897.01-6.55Q896.71-4.5 895.41-2.98 894.11-1.45 892.31-0.63 890.51 0.2 888.71 0.2ZM902.8 0.3L902.8 0.3Q900.75 0.3 899.4-1 898.05-2.3 898.05-4.2L898.05-4.2Q898.05-6.35 899.63-7.88 901.2-9.4 903.5-9.4L903.5-9.4Q905.55-9.4 906.93-8.1 908.3-6.8 908.3-4.9L908.3-4.9Q908.3-2.75 906.7-1.23 905.1 0.3 902.8 0.3ZM914.55 0.3L914.55 0.3Q912.5 0.3 911.15-1 909.8-2.3 909.8-4.2L909.8-4.2Q909.8-6.35 911.38-7.88 912.95-9.4 915.25-9.4L915.25-9.4Q917.3-9.4 918.68-8.1 920.05-6.8 920.05-4.9L920.05-4.9Q920.05-2.75 918.45-1.23 916.85 0.3 914.55 0.3ZM926.3 0.3L926.3 0.3Q924.25 0.3 922.9-1 921.55-2.3 921.55-4.2L921.55-4.2Q921.55-6.35 923.12-7.88 924.7-9.4 927-9.4L927-9.4Q929.05-9.4 930.42-8.1 931.8-6.8 931.8-4.9L931.8-4.9Q931.8-2.75 930.2-1.23 928.6 0.3 926.3 0.3Z" opacity="1" transform="matrix(1,0,0,1,0,0)" fill="#111111" class="slogan-text-1" data-fill-palette-color="secondary" id="text-1"></path></svg></g></svg></g></svg></g></svg></g></svg></g><defs></defs></svg><rect width="395.52" height="119.1284481183562" fill="none" stroke="none" visibility="hidden"></rect></g></svg></g></svg>